<svg xmlns="http://www.w3.org/2000/svg" viewBox="0 0 1024 1024">
  <defs>
    <radialGradient id="bg" cx="50%" cy="30%" r="60%">
      <stop offset="0%" stop-color="#2d3748"/>
      <stop offset="100%" stop-color="#1a202c"/>
    </radialGradient>
    <filter id="glow">
      <feGaussianBlur stdDeviation="8" result="coloredBlur"/>
      <feMerge>
        <feMergeNode in="coloredBlur"/>
        <feMergeNode in="SourceGraphic"/>
      </feMerge>
    </filter>
  </defs>
  <circle cx="512" cy="512" r="420" fill="url(#bg)"/>
  <circle cx="512" cy="512" r="420" fill="none" stroke="#4a5568" stroke-width="2" opacity="0.3"/>
  <g opacity="0.15">
    <line x1="100" y1="512" x2="924" y2="512" stroke="#63b3ed" stroke-width="4"/>
    <line x1="512" y1="100" x2="512" y2="924" stroke="#63b3ed" stroke-width="4"/>
    <line x1="232" y1="232" x2="792" y2="792" stroke="#63b3ed" stroke-width="3"/>
    <line x1="792" y1="232" x2="232" y2="792" stroke="#63b3ed" stroke-width="3"/>
  </g>
  <g opacity="0.1">
    <circle cx="200" cy="200" r="80" fill="none" stroke="#4fd1c5" stroke-width="2"/>
    <circle cx="824" cy="200" r="80" fill="none" stroke="#4fd1c5" stroke-width="2"/>
    <circle cx="200" cy="824" r="80" fill="none" stroke="#4fd1c5" stroke-width="2"/>
    <circle cx="824" cy="824" r="80" fill="none" stroke="#4fd1c5" stroke-width="2"/>
  </g>
  <g transform="translate(512,512)" filter="url(#glow)">
    <rect x="-150" y="-150" width="300" height="300" rx="24" fill="#2d3748" stroke="#63b3ed" stroke-width="6"/>
    <rect x="-120" y="-120" width="240" height="240" rx="16" fill="none" stroke="#4fd1c5" stroke-width="3"/>
    <rect x="-100" y="-100" width="80" height="80" rx="8" fill="#63b3ed" opacity="0.8"/>
    <rect x="20" y="-100" width="80" height="80" rx="8" fill="#4fd1c5" opacity="0.6"/>
    <rect x="-100" y="20" width="80" height="80" rx="8" fill="#4fd1c5" opacity="0.6"/>
    <rect x="20" y="20" width="80" height="80" rx="8" fill="#63b3ed" opacity="0.8"/>
    <circle cx="0" cy="0" r="30" fill="#1a202c" stroke="#63b3ed" stroke-width="4"/>
    <circle cx="0" cy="0" r="12" fill="#63b3ed"/>
  </g>
  <circle cx="512" cy="512" r="420" fill="none" stroke="#4a5568" stroke-width="4"/>
</svg>
